<svg width="42" height="42" viewBox="0 0 42 42" fill="none" xmlns="http://www.w3.org/2000/svg">
<path d="M20.9812 0.575029C9.38906 0.570342 0 9.95472 0 21.5375C0 30.6969 5.87344 38.4828 14.0531 41.3422C15.1547 41.6188 14.9859 40.836 14.9859 40.3016V36.6688C8.625 37.4141 8.36719 33.2047 7.94062 32.5016C7.07812 31.0297 5.03906 30.6547 5.64844 29.9516C7.09687 29.2063 8.57344 30.1391 10.2844 32.6657C11.5219 34.4985 13.9359 34.1891 15.1594 33.8844C15.4266 32.7828 15.9984 31.7985 16.7859 31.0344C10.1953 29.8532 7.44844 25.8313 7.44844 21.05C7.44844 18.7297 8.2125 16.5969 9.7125 14.8766C8.75625 12.0407 9.80156 9.61253 9.94219 9.25159C12.6656 9.00784 15.4969 11.2016 15.7172 11.375C17.2641 10.9578 19.0312 10.7375 21.0094 10.7375C22.9969 10.7375 24.7687 10.9672 26.3297 11.3891C26.8594 10.986 29.4844 9.10159 32.0156 9.33128C32.1516 9.69222 33.1734 12.0641 32.2734 14.8625C33.7922 16.5875 34.5656 18.7391 34.5656 21.0641C34.5656 25.8547 31.8 29.8813 25.1906 31.0438C25.7567 31.6005 26.2062 32.2645 26.5129 32.9969C26.8195 33.7293 26.9771 34.5154 26.9766 35.3094V40.5828C27.0141 41.0047 26.9766 41.4219 27.6797 41.4219C35.9812 38.6235 41.9578 30.7813 41.9578 21.5422C41.9578 9.95472 32.5641 0.575029 20.9812 0.575029Z" fill="#121212"/>
</svg>
